<?xml version="1.0" encoding="utf-8"?>
<!-- Svg Vector Icons : http://www.onlinewebfonts.com/icon -->
<!DOCTYPE svg PUBLIC "-//W3C//DTD SVG 1.1//EN" "http://www.w3.org/Graphics/SVG/1.1/DTD/svg11.dtd">
<svg version="1.1" xmlns="http://www.w3.org/2000/svg" xmlns:xlink="http://www.w3.org/1999/xlink" x="0px" y="0px" viewBox="0 0 1000 1000" enable-background="new 0 0 1000 1000" xml:space="preserve">
<metadata> Svg Vector Icons : http://www.onlinewebfonts.com/icon </metadata>
<g><path d="M500,10C229.4,10,10,229.4,10,500c0,270.6,219.4,490,490,490c270.6,0,490-219.4,490-490S770.6,10,500,10z M500,980.4C234.7,980.4,19.6,765.3,19.6,500C19.6,234.7,234.7,19.6,500,19.6c265.3,0,480.4,215.1,480.4,480.4C980.4,765.3,765.3,980.4,500,980.4z"/><path d="M497.6,427.9c-50.4,0-91.3,40.9-91.3,91.3c0,50.4,40.9,91.3,91.3,91.3c50.4,0,91.3-40.9,91.3-91.3C588.9,468.8,548,427.9,497.6,427.9z M497.5,599.3c-45.7,0-81.6-34.9-81.6-80c0-45.1,36.6-81.7,81.7-81.7c45.1,0,81.7,36.6,81.7,81.7C579.3,564.4,543.2,599.3,497.5,599.3z M598.5,351.1c1.8,3.8,8,29.2,13.3,39.7l36.5,0.7c27.7,0,46.3,13.7,46.3,41.2l0.1,103.8l-1.4,1.9h11V433.7c0-29.1-22.1-51.4-51.2-51.4h-34.1c-5.5-11.1-10.9-34.5-12.8-38.5c-3.5-7.3-9-16.3-23.4-21.5H412c-14.4,5.2-19.9,14.2-23.4,21.5c-1.9,4-7.3,27.5-12.8,38.5h-38.4c-29.1,0-51.2,22.3-51.2,51.4v192.7c0,29.1,22.1,51.4,51.2,51.4h265.8l0,0h-4.7v-10l-0.3,0.4l-259.1,0c-27.7,0-43.2-15.7-43.2-43.2l0-187.7c0-27.5,18.6-46.1,46.3-46.1l41.4-0.7c5.3-10.5,11.4-35.5,13.2-39.3c3.4-6.9,5.4-14.3,19.1-19.2h162.9C592.4,336.7,595.1,344.2,598.5,351.1z M675.3,615.3v-38.4h-9.6v38.4h-38.4v9.6h38.4v38.4h9.6v-38.4h38.4v-9.6H675.3z"/></g>
</svg>